# xmcd CD database file
#
# Track frame offsets:
#	150
#	22655
#	44485
#	81522
#	109308
#	137899
#	160471
#	186932
#	203481
#	232901
#
# Disc length: 3524 seconds
#
# Revision: 0
# Processed by: cddbd v1.5.1PL2 Copyright (c) Steve Scherf et al.
# Submitted via: CDex 1.51
#
DISCID=820dc20a
DTITLE=Doni Harvey - Your Blues Ain't Like My Blues
DYEAR=2000
DGENRE=Blues
TTITLE0=This is the Last Time
TTITLE1=Feelin' Kind of Bluesy
TTITLE2=So Hard
TTITLE3=Your Blues Ain't Like my Blues
TTITLE4=Have my Love Today
TTITLE5=Blue and Easy
TTITLE6=From the Corner of the Room
TTITLE7=Never Let You Go
TTITLE8=850 Bryant Street
TTITLE9=No News is Good News
EXTD=YEAR: 2000
EXTT0=
EXTT1=
EXTT2=
EXTT3=
EXTT4=
EXTT5=
EXTT6=
EXTT7=
EXTT8=
EXTT9=
PLAYORDER=
